<svg width="20" height="20" viewBox="0 0 20 20" fill="none" xmlns="http://www.w3.org/2000/svg">
<path d="M18.9321 11.4101C19.0078 10.9439 19.0454 10.4723 19.0446 10.0001C19.0446 7.60117 18.0917 5.30054 16.3954 3.60427C14.6992 1.90801 12.3985 0.955053 9.99965 0.955053C9.52738 0.95432 9.05583 0.991943 8.58965 1.06755C7.5442 0.441307 6.3195 0.182284 5.11002 0.331618C3.90054 0.480953 2.77563 1.03008 1.9139 1.89181C1.05218 2.75353 0.503047 3.87845 0.353713 5.08793C0.204379 6.29741 0.463401 7.52211 1.08965 8.56755C1.00527 9.04052 0.96012 9.51965 0.954647 10.0001C0.954647 12.3989 1.9076 14.6996 3.60387 16.3958C5.30013 18.0921 7.60076 19.0451 9.99965 19.0451C10.4719 19.0458 10.9435 19.0082 11.4096 18.9326C12.4551 19.5588 13.6798 19.8178 14.8893 19.6685C16.0987 19.5192 17.2237 18.97 18.0854 18.1083C18.9471 17.2466 19.4962 16.1217 19.6456 14.9122C19.7949 13.7027 19.5359 12.478 18.9096 11.4326L18.9321 11.4101ZM14.2971 14.1101C13.8738 14.6953 13.2904 15.1459 12.6171 15.4076C11.7864 15.7336 10.8993 15.8916 10.0071 15.8726C8.96867 15.916 7.93554 15.7022 6.99965 15.2501C6.45401 14.9567 5.9861 14.5377 5.63465 14.0276C5.31271 13.5918 5.12974 13.069 5.10965 12.5276C5.10886 12.3871 5.13709 12.2479 5.19259 12.1189C5.24808 11.9898 5.32964 11.8736 5.43215 11.7776C5.65931 11.5842 5.95174 11.485 6.24965 11.5001C6.49861 11.4953 6.74092 11.5806 6.93215 11.7401C7.14146 11.9359 7.3031 12.177 7.40465 12.4451C7.53477 12.7583 7.70088 13.0553 7.89965 13.3301C8.09775 13.5838 8.35535 13.7847 8.64965 13.9151C9.04939 14.0866 9.48256 14.166 9.91715 14.1476C10.5361 14.1775 11.1492 14.0151 11.6721 13.6826C11.8728 13.565 12.0397 13.3976 12.1567 13.1965C12.2736 12.9955 12.3367 12.7676 12.3396 12.5351C12.3461 12.3722 12.3181 12.2098 12.2573 12.0586C12.1966 11.9073 12.1045 11.7707 11.9871 11.6576C11.7201 11.4115 11.399 11.2317 11.0496 11.1326C10.6596 11.0051 10.1421 10.8776 9.48965 10.7351C8.74027 10.5606 8.0094 10.3145 7.30715 10.0001C6.75457 9.77358 6.26732 9.41265 5.88965 8.95005C5.53144 8.47323 5.34628 7.88865 5.36465 7.29255C5.35859 6.68656 5.55379 6.09568 5.91965 5.61255C6.33754 5.09336 6.89405 4.70328 7.52465 4.48755C8.322 4.22272 9.15988 4.10084 9.99965 4.12755C10.6567 4.11593 11.3117 4.20445 11.9421 4.39005C12.4369 4.53696 12.9016 4.77059 13.3146 5.08005C13.6397 5.32418 13.9104 5.63322 14.1096 5.98755C14.2718 6.27378 14.3595 6.59613 14.3646 6.92505C14.3637 7.06527 14.3347 7.20387 14.2793 7.33268C14.2239 7.46149 14.1433 7.57791 14.0421 7.67505C13.9401 7.78564 13.8159 7.87352 13.6776 7.93296C13.5394 7.99239 13.3901 8.02207 13.2396 8.02005C12.9984 8.03883 12.7592 7.96358 12.5721 7.81005C12.3753 7.62043 12.2107 7.40005 12.0846 7.15755C11.8989 6.7753 11.6298 6.43956 11.2971 6.17505C10.8606 5.90292 10.3468 5.78171 9.83465 5.83005C9.30896 5.80789 8.78806 5.93812 8.33465 6.20505C8.16995 6.293 8.03086 6.42214 7.93096 6.57988C7.83106 6.73762 7.77376 6.91856 7.76465 7.10505C7.75871 7.30882 7.82514 7.5081 7.95215 7.66755C8.10173 7.84087 8.28559 7.98132 8.49215 8.08005C8.71211 8.19384 8.94337 8.28433 9.18215 8.35005C9.42215 8.41755 9.81215 8.51505 10.3596 8.64255C11.0496 8.79255 11.6646 8.95755 12.2271 9.13755C12.7303 9.29084 13.2098 9.51294 13.6521 9.79755C14.038 10.0416 14.3554 10.3796 14.5746 10.7801C14.7975 11.2367 14.9008 11.7426 14.8746 12.2501C14.8814 12.9152 14.6794 13.5657 14.2971 14.1101Z" fill="white"/>
</svg>
